<mxfile host="app.diagrams.net" modified="2024-05-27T12:34:04.506Z" agent="Mozilla/5.0 (Windows NT 10.0; Win64; x64; rv:126.0) Gecko/20100101 Firefox/126.0" version="24.4.4" etag="VBon4t5LYTF5z34Xegi1" type="github">
  <diagram name="Page-1" id="mLB9qFqiXMpKBvjP-2ia">
    <mxGraphModel>
      <root>
        <mxCell id="0" />
        <mxCell id="1" parent="0" />
      </root>
    </mxGraphModel>
  </diagram>
</mxfile>
